<svg xmlns="http://www.w3.org/2000/svg" viewBox="0 0 16.95 22.35">
  <path
    transform="translate(-3.93 -1.42)"
    fill="rgb(255,208,0)"
    d="M.5,1.43c2.22,0,4.45,0,6.67,0,1.21,0,2.41,0,3.61,0,0,.12,0,.24-.07.36H4.56L4.5,1.43M4.6,2H14.68c-.17,1-.33,2.11-.5,3.16a.78.78,0,0,1-.68-.72A1.76,1.76,0,0,0,13.79,4c0-.18.05-.36.1-.54s.16-.39.21-.59a.37.37,0,0,0-.19.11,3.43,3.43,0,0,0-.53.55,5.51,5.51,0,0,0-.75-.7c0,.18.12.31.17.48s.06.52.17.76a3,3,0,0,0,.25.37.8.8,0,0,1-.53.7.86.86,0,0,1-.83-.18c-.16-.14-.16-.38-.34-.5a.78.78,0,0,0,.4.76,1,1,0,0,0,1.32-.34c.13-.16.08-.36.09-.55a.57.57,0,0,1,.11.11c0,.13-.06.28,0,.4a1,1,0,0,0,.68.52,2,2,0,0,0,0,.26H7.16c-.66,0-1.32,0-2,0,0-.09,0-.18,0-.28a1.08,1.08,0,0,0,.58-.47.57.57,0,0,0,0-.46l.11-.07a.87.87,0,0,0,.06.48.91.91,0,0,0,.84.53.88.88,0,0,0,.92-.87l-.12,0A.88.88,0,0,1,7,5.13a.9.9,0,0,1-.7-.1A.85.85,0,0,1,6,4.37a.69.69,0,0,0,.26-.32c.1-.23.08-.49.16-.73a4.34,4.34,0,0,0,.2-.5.67.67,0,0,0-.18.11,6.35,6.35,0,0,0-.58.58,2.66,2.66,0,0,0-.72-.66c0,.2.15.38.2.59s.06.38.12.57a1.82,1.82,0,0,0,.27.41.84.84,0,0,1-.59.72C4.93,4.09,4.76,3,4.6,2m1.16.36a3.47,3.47,0,0,0,0,.56c-.06-.13-.07-.28-.17-.38H5.43A.79.79,0,0,0,5.71,3L5.86,3a2.25,2.25,0,0,0,.08-.52c0-.09-.11-.08-.18-.1m1.84.1c0,.18.05.36.05.55h.11c0-.18,0-.37,0-.55s-.19-.12-.2,0m1.9-.09A1.41,1.41,0,0,0,9.55,3L9.7,3A.79.79,0,0,0,10,2.51H9.82c-.06.14-.11.29-.17.43,0-.19,0-.38,0-.58H9.5m1.9,0c-.07.21,0,.43,0,.64.08,0,.18.06.23,0a1.05,1.05,0,0,0,.24-.44l-.16,0a2.34,2.34,0,0,0-.19.46,4.36,4.36,0,0,1,0-.51c0-.09-.11-.08-.18-.1m1.86,0a2.47,2.47,0,0,0,.08.6l.14.08a1.28,1.28,0,0,0,.31-.51l-.15-.06a2.11,2.11,0,0,0-.2.43,3.62,3.62,0,0,0,0-.57l-.17,0M5.92,3a.65.65,0,0,0,.32-.49l-.17,0A1.16,1.16,0,0,0,5.92,3m1.37-.48a.8.8,0,0,0,.34.5,1.28,1.28,0,0,0-.18-.54l-.16,0m.63,0A1.5,1.5,0,0,0,7.78,3a.73.73,0,0,0,.34-.52c-.06,0-.17,0-.2.05m1.25,0A.7.7,0,0,0,9.49,3a1,1,0,0,0-.15-.51l-.17,0m1.9,0c0,.19.13.44.34.49a1.73,1.73,0,0,0-.14-.44c0-.08-.14,0-.2-.05m1.88,0a.7.7,0,0,0,.32.49,1,1,0,0,0-.15-.51l-.17,0M5.24,2.6l-.09.15a1.76,1.76,0,0,0,.49.41,1.14,1.14,0,0,0-.4-.56m1.09,0a1.55,1.55,0,0,0-.3.53,2.33,2.33,0,0,0,.45-.38V2.63H6.33m.71,0a.48.48,0,0,0,.06.24H7c.07.2.17.38.23.58a3.22,3.22,0,0,0,.1.54,1,1,0,0,0,.27.42.61.61,0,0,1,.27,0,1.21,1.21,0,0,0,.25-.3,2.79,2.79,0,0,0,.14-.65c0-.21.16-.4.22-.6a2.73,2.73,0,0,0-.74.66c-.18-.23-.42-.4-.59-.63a2.27,2.27,0,0,1,.35.26V3a1.51,1.51,0,0,0-.27-.39L7,2.62m1.17,0a1.93,1.93,0,0,0-.31.49,1,1,0,0,0,.44-.32c.05,0,0-.12,0-.18H8.21m.72,0,0,.13.1.13-.19,0a3.61,3.61,0,0,1,.26.69,2,2,0,0,0,.1.49c.06.16.19.28.25.44a.81.81,0,0,1-.52.66A.86.86,0,0,1,8.15,5c-.19-.14-.24-.39-.36-.58a.3.3,0,0,0,0,.26.94.94,0,0,0,.64.63,1,1,0,0,0,.79-.14,1.43,1.43,0,0,0,.41-.53,1.22,1.22,0,0,0,.41.54,1,1,0,0,0,.76.13.93.93,0,0,0,.66-.59,1.22,1.22,0,0,0,0-.38c.07,0,.16.11.22,0A1.1,1.1,0,0,0,12,3.59a3.4,3.4,0,0,1,.25-.74l-.14,0,.07-.16a.35.35,0,0,0-.05-.08H12a1.45,1.45,0,0,0-.31.5,3.37,3.37,0,0,0,.37-.24.63.63,0,0,1-.18.22,3.89,3.89,0,0,0-.4.41c-.16-.19-.35-.35-.5-.55l.31.2A1.79,1.79,0,0,0,11,2.63h-.16a.79.79,0,0,0,.08.26l-.18-.08c.07.2.18.38.23.58a4.06,4.06,0,0,0,.16.69c.06.13.18.22.24.35a.81.81,0,0,1-.66.72.82.82,0,0,1-1-.69c0-.09.08-.14.12-.21a1.06,1.06,0,0,0,.23-.64,3,3,0,0,1,.26-.76l-.15,0,.09-.17s-.1-.09-.16-.07a1.27,1.27,0,0,0-.34.52c.13-.08.26-.18.38-.27V3a2.48,2.48,0,0,0-.56.56c-.18-.21-.4-.39-.58-.61l.38.26a2.17,2.17,0,0,0-.31-.53H8.93m3.78,0v.16a2.12,2.12,0,0,0,.46.38,1.76,1.76,0,0,0-.31-.53h-.15m.84.53a1.87,1.87,0,0,0,.49-.4L14,2.6a1.23,1.23,0,0,0-.4.55m-7.91,0a.61.61,0,0,0,.21.24A1.33,1.33,0,0,0,6,3.2a.34.34,0,0,0-.09-.15c-.1,0-.18.05-.26.1m2-.11c0,.06-.07.13-.05.2a2.09,2.09,0,0,0,.14.17c.06-.08.16-.15.16-.25S7.7,3.05,7.61,3M9.4,3.2c0,.06.11.12.16.19a1.8,1.8,0,0,0,.2-.19c-.06-.06-.1-.18-.2-.15s-.11.1-.16.15m2-.11c-.12.1,0,.22.07.31l.21-.2c-.06-.1-.18-.22-.28-.11m1.87,0c-.1.1,0,.2.1.28l.2-.19c-.07-.1-.21-.23-.3-.09m-8,2.7H13c.34,0,.69,0,1,0,0,0,0,.09,0,.12H5.22l0-.13m0,.25H14c-.35,2.19-.69,4.39-1,6.59a4.75,4.75,0,0,0,0,2.51,1.89,1.89,0,0,0,1.08,1.18,2.48,2.48,0,0,1,1,.71,1,1,0,0,1,.24.65.56.56,0,0,1-.4.49,1.14,1.14,0,0,1-.66-.05,2,2,0,0,0-1.62,0,.87.87,0,0,0-.49.88,1.35,1.35,0,0,0,1.15,1.1h7.37v.43c-.82,0-1.64,0-2.46,0H4c0-.15,0-.3,0-.45h6.18a4.18,4.18,0,0,0,.71,0,.35.35,0,0,0-.14-.06,4.11,4.11,0,0,1-2.66-1.53,7,7,0,0,1-1.35-3.14c-.51-3.1-1-6.2-1.5-9.29M9.11,8.6c0,.41,0,.81,0,1.21a3.68,3.68,0,0,1,.58-.08c.12-.33.23-.67.35-1a.25.25,0,0,0,0-.31.76.76,0,0,0-.55-.11c-.17,0-.37.1-.35.29m-1,.19a.3.3,0,0,0,0,.34l.44.9c.17-.06.33-.15.49-.22,0-.4,0-.8,0-1.19,0-.18-.24-.14-.36-.12a1.05,1.05,0,0,0-.55.29m2.25-.28a.47.47,0,0,0-.18.29c-.11.31-.24.61-.33.93l.51.11c.2-.21.36-.46.55-.68s.21-.24.15-.4a.56.56,0,0,0-.7-.25m.74.61c-.22.24-.41.5-.61.75.11.11.22.23.32.35l.76-.41a.41.41,0,0,0,.25-.39A.73.73,0,0,0,11.45,9a.35.35,0,0,0-.39.12m-3.58.12a.78.78,0,0,0-.22.57c.26.25.56.47.82.72l.35-.4A10.64,10.64,0,0,0,8,9.1a.79.79,0,0,0-.47.14m-.75,1.24a1.29,1.29,0,0,0,.43.24,4.08,4.08,0,0,0,.71.32c.06-.13.11-.27.16-.41-.2-.19-.42-.36-.63-.55a.7.7,0,0,0-.33-.2c-.29,0-.48.36-.34.6M9,10c-.17.08-.15.31-.09.46a1.38,1.38,0,0,0,.51.61A1.82,1.82,0,0,0,9.77,11c0-.24-.12-.46-.11-.7s0-.23,0-.34A1.74,1.74,0,0,0,9,10M9.81,10A1.33,1.33,0,0,0,10,11a1.77,1.77,0,0,0,.46,0,1.48,1.48,0,0,1,.19-.64.85.85,0,0,0-.8-.34m-1.68.81c-.06.16.1.29.22.38a1.44,1.44,0,0,0,.75.29,2.73,2.73,0,0,0,.2-.25,4.47,4.47,0,0,1-.42-.45c-.1-.15-.18-.32-.28-.47a.76.76,0,0,0-.47.5m-1.49,0a.5.5,0,0,0-.18.4.25.25,0,0,0,.09.28,4.9,4.9,0,0,0,.85.16,2.84,2.84,0,0,0,.42.08c0-.16,0-.32,0-.47-.27-.14-.56-.26-.84-.38a.61.61,0,0,0-.35-.07m1.41.34a1.36,1.36,0,0,0,0,.75.47.47,0,0,0,.18.31,6.4,6.4,0,0,0,.88-.06c0-.17,0-.34,0-.51a1.84,1.84,0,0,1-1-.49m1.45.22a.65.65,0,0,0-.21.68.9.9,0,0,0,.26.41l.59.67a8.77,8.77,0,0,1,1.93,2.67,6.47,6.47,0,0,1,.37,2.43,1.49,1.49,0,0,1,.48-.26,1.94,1.94,0,0,1,.76,0,8.38,8.38,0,0,1-.35-1.21,12.43,12.43,0,0,0-1-2.42c-.52-.82-1.18-1.55-1.66-2.4a3.25,3.25,0,0,1-.26-.74,1.29,1.29,0,0,0-.92.19m-2.81.43a.55.55,0,0,0-.1.51c0,.15.22.14.35.14.37,0,.75,0,1.13,0a5,5,0,0,1-.25-.59A7.08,7.08,0,0,0,7,11.69a.64.64,0,0,0-.34,0m1.69.53c-.16.2.09.53.33.47s.49-.11.74-.15c-.11-.13-.21-.28-.33-.4a4.65,4.65,0,0,0-.74.08m-1,.26a1.39,1.39,0,0,0-.54.09c-.08,0-.07.12-.06.18a.63.63,0,0,0,.26.34,6.08,6.08,0,0,0,1.33-.29,3,3,0,0,1-.28-.41c-.24,0-.48.07-.71.09m1.41.3c-.07,0-.16.06-.15.16a.35.35,0,0,0,.43.33,5.29,5.29,0,0,0,.8-.24,4,4,0,0,0-.33-.39c-.25,0-.5.09-.75.14m-1.25.37c-.11,0-.27,0-.34.16a.39.39,0,0,0,.19.37c.11.08.24,0,.36,0,.32-.11.65-.19,1-.29a.83.83,0,0,1-.3-.43c-.3,0-.59.15-.89.21m1.79.16c-.09,0-.23.06-.23.18a.33.33,0,0,0,.23.33,1.24,1.24,0,0,0,.38-.09,3.72,3.72,0,0,0,.65-.19c-.12-.12-.22-.29-.37-.37a3,3,0,0,0-.66.14m-1.3.4c-.12,0-.27,0-.36.15s.12.45.33.38c.38-.1.77-.21,1.16-.34a.55.55,0,0,1-.27-.43c-.29.07-.57.16-.86.24m1.59.16a.27.27,0,0,0,0,.42.68.68,0,0,0,.4,0l.71-.21a2.3,2.3,0,0,0-.35-.41l-.81.22m-1.38.42c-.18,0-.17.27-.08.38s.26.1.39.06l1-.29a1.27,1.27,0,0,1-.26-.43c-.36.06-.7.19-1.06.28m1.75.13a.3.3,0,0,0,.13.42.57.57,0,0,0,.34,0c.24-.08.5-.13.73-.23a3.26,3.26,0,0,0-.34-.4,5.27,5.27,0,0,0-.86.25m-1.46.44c0,.11,0,.25,0,.35s.25.08.38.05c.34-.09.68-.21,1-.3a1.45,1.45,0,0,1-.3-.43c-.39.09-.77.21-1.15.33m1.83.08a.37.37,0,0,0,.1.42.61.61,0,0,0,.42,0c.22-.08.45-.12.66-.22a4,4,0,0,0-.27-.44l-.91.28m-1.43.45a.3.3,0,0,0,.13.42,1,1,0,0,0,.44-.07c.27-.09.56-.15.83-.26a.6.6,0,0,1-.18-.47c-.41.14-.82.23-1.22.38m1.8.09c-.17.09-.08.33,0,.42a.64.64,0,0,0,.43,0l.57-.18,0-.06a1.9,1.9,0,0,0-.21-.43c-.28.1-.58.17-.87.28m-1.31.39c-.07,0-.17,0-.21.12s0,.27.13.35.21,0,.31,0l1-.3a.67.67,0,0,1-.2-.48c-.34.12-.69.21-1,.31m1.7.13c-.09,0-.22.06-.21.18a.29.29,0,0,0,.38.31L12,16.3a1.56,1.56,0,0,0-.14-.48c-.25,0-.5.15-.75.22m-1.52.46c-.2.05-.15.36,0,.44a.58.58,0,0,0,.39,0c.32-.11.65-.2,1-.29a1,1,0,0,1-.2-.2.75.75,0,0,1,0-.26l-1.11.32m1.55.2c-.13.17,0,.48.24.43a7.17,7.17,0,0,0,.76-.21c0-.17-.06-.34-.09-.51-.3.11-.62.18-.91.29m-1.28.38c-.08,0-.19,0-.21.14s.07.36.24.36a2.28,2.28,0,0,0,.45-.11,6.54,6.54,0,0,0,.75-.24.62.62,0,0,1-.19-.46l-1,.31m1.55.17c-.07,0-.17.05-.16.15a.29.29,0,0,0,.34.34c.21-.06.42-.14.63-.21,0-.16-.05-.33-.08-.5l-.73.22m-1.38.42c-.09,0-.24,0-.23.17a.35.35,0,0,0,.2.35,1.07,1.07,0,0,0,.31-.06c.32-.11.65-.19,1-.3a.57.57,0,0,1-.24-.45c-.34.08-.67.21-1,.29m1.4.23c-.26.08-.08.53.17.48s.41-.14.62-.2v-.52c-.26.08-.53.14-.79.24m-1.07.32a1.76,1.76,0,0,0-.5.18c0,.1,0,.23.06.31a.24.24,0,0,0,.26.09l1.19-.35a.67.67,0,0,1-.19-.14,1.57,1.57,0,0,1-.08-.29c-.25.05-.49.14-.74.2m1.09.32c-.21.09-.09.39.08.46a.85.85,0,0,0,.42-.08c.06,0,.14-.05.16-.12a4.05,4.05,0,0,1,.12-.5c-.26.1-.53.14-.78.24M10,19c-.25.1-.08.48.14.48a1,1,0,0,0,.24-.05c.32-.11.66-.18,1-.31a.51.51,0,0,1-.24-.43c-.38.09-.75.22-1.12.31m5.21-8.12a2,2,0,0,1,1.32-.27,1.12,1.12,0,0,1,.47.18,1,1,0,0,0-.31.32c-.17,0-.19-.22-.34-.25a1.07,1.07,0,0,0-.58.12.38.38,0,0,0-.26.36.77.77,0,0,0,.38.53c.05,0,.14.09.06.14a.83.83,0,0,0-.33.8c0,.15.21.12.33.15S16,13,16,13l-.28.16a.64.64,0,0,0,.35.39l-.3,0a.46.46,0,0,0,.09.3.56.56,0,0,0,.39.17c-.08.05-.2.09-.2.2s.37.15.55.16c0,.07-.09.14-.13.22.17,0,.35.05.52.08.13,1,.19,2,.3,3a6.91,6.91,0,0,0,.11.9,3.17,3.17,0,0,0-.86-.2,4.7,4.7,0,0,0-.92-.08,1.71,1.71,0,0,0,.06-1,1.45,1.45,0,0,0-.64-.8c-.5-.32-1.15-.42-1.56-.87a1.55,1.55,0,0,1-.36-1.06,4.63,4.63,0,0,1,.83-2.43,4.82,4.82,0,0,1,1.33-1.37m1.88.07a.31.31,0,0,1,.36.07c.24.23.6.34.73.66-.2-.13-.4-.26-.61-.38a.54.54,0,0,0-.52-.08c-.24.14-.34.41-.55.59a.56.56,0,0,1-.44,0,.74.74,0,0,1-.37-.55.54.54,0,0,1,.49-.24c.19,0,.3.18.42.31a3.65,3.65,0,0,0,.49-.39M16.77,12c0-.3.23-.68.57-.64.11,0,.16.1.22.17a.63.63,0,0,1,.56.26,1,1,0,0,0-.53.15c-.16.1-.25.29-.42.39a.31.31,0,0,1-.4-.33m.2.16c.13.09.26,0,.35-.12a.61.61,0,0,1-.23-.11.26.26,0,0,1,0-.28c.08-.09.26-.05.32-.17a.46.46,0,0,0-.43.68m.23-.44c-.06.12.08.21.19.22s.33-.17.5-.25a.93.93,0,0,0-.37,0c0,.09-.08.2-.2.2v-.24s-.1,0-.12.09m-1.29.6a1.13,1.13,0,0,1,.66-.42,2.53,2.53,0,0,0,.33,1.86,2.89,2.89,0,0,0,.51.54.72.72,0,0,1-.52.3l-.07-.06.12-.31a5.58,5.58,0,0,1-.59.09c.1-.16.26-.3.24-.5a.81.81,0,0,1-.53,0c.13-.13.33-.24.35-.45a3.54,3.54,0,0,1-.47-.07c.14-.18.32-.35.31-.6a1.27,1.27,0,0,1-.43,0,.71.71,0,0,1,.09-.4M17.77,12a1,1,0,0,1,.49-.05c-.18.06-.4,0-.54.17s-.14.51-.33.71a.44.44,0,0,1-.44.09c0-.1,0-.22.05-.3a3,3,0,0,1,.39-.32,2.18,2.18,0,0,1,.38-.3m.28.08c.31-.12.61.11.92.13a1.6,1.6,0,0,1-.1.42c-.15-.1-.2-.29-.34-.39a1.05,1.05,0,0,0-.48-.16m-.12.31a.4.4,0,0,1,.56,0,.8.8,0,0,1,.18.42l-.58.16a3.17,3.17,0,0,1-.69.07c.21-.2.3-.5.53-.67m.21.75a3.33,3.33,0,0,0,.6-.22,1.5,1.5,0,0,1-.34.57c-.08-.08-.15-.21-.28-.2a1.35,1.35,0,0,0-.82.13.3.3,0,0,0,.13.5,1.06,1.06,0,0,0,.5,0c.15-.09.25-.24.4-.32a2.45,2.45,0,0,0-.26.51c0,.1,0,.21-.11.29a.36.36,0,0,1-.41.05,1.57,1.57,0,0,1-.12-.3,1.34,1.34,0,0,1-.35-.32.38.38,0,0,1,.11-.51,3,3,0,0,1,.95-.17m-.72.37a.86.86,0,0,1,.65,0c.09,0,0,.13,0,.18a1.85,1.85,0,0,0-.69-.14m-4.26,4.92a1.69,1.69,0,0,1,1.27,0,3.14,3.14,0,0,0,.75.09c.36.08.73.06,1.09.13a4.13,4.13,0,0,1,1,.18,2,2,0,0,0,.8.1c.22,0,.38-.18.59-.19s.25.1.38.08.2,0,.27.05.11.22.18.32.3.11.39.24a2.3,2.3,0,0,1,.24.5H20c-.21-.24-.42-.47-.62-.72a1.7,1.7,0,0,0-.19-.19,1.35,1.35,0,0,0,.09.33L18.92,19c-.06-.07-.16,0-.24-.06,0,.23.23.34.22.56-.23,0-.39-.17-.6-.24a2.52,2.52,0,0,0-.77-.11A1.61,1.61,0,0,1,17,19a5.7,5.7,0,0,0-1.16-.17c-.43-.06-.86,0-1.29-.05s-.59-.15-.89-.16a.83.83,0,0,0-.48.18.53.53,0,0,0,0,.68.94.94,0,0,0,.58.26c.43,0,.86,0,1.29,0s.87-.07,1.31-.06.62,0,.93,0l0-.09a2,2,0,0,0-.75-.13H14.42c-.24,0-.53.06-.71-.13a.25.25,0,0,1,0-.37,2.15,2.15,0,0,1,.91,0c.45.09.91,0,1.37.12a9.54,9.54,0,0,1,1.17.2c.5.11,1.08,0,1.51.38a.54.54,0,0,0,.45.16c0-.12,0-.24,0-.36l.43.14a.6.6,0,0,1,.34.39c-2,0-4,0-6,0a1.58,1.58,0,0,1-.93-.32.81.81,0,0,1-.23-.83.8.8,0,0,1,.45-.45M4,20.77c0-.12.16-.09.25-.1H19.55c.4,0,.8,0,1.2,0v.11H4.19c-.07,0-.15,0-.21,0m14.49.4.18,0a.46.46,0,0,1,0,.26h-.24a.3.3,0,0,1,0-.27m-13.09.12h.46c0,.37,0,.73,0,1.09a3.14,3.14,0,0,0,.75,0c.59,0,1.17,0,1.75,0a.49.49,0,0,0,0-.12.46.46,0,0,0-.25-.08H6.62c-.13,0-.3,0-.38-.13s0-.36,0-.53a.13.13,0,0,0-.06.11,2.59,2.59,0,0,0,0,.48c-.35-.1-.29-.61,0-.77s.36,0,.53,0a1.14,1.14,0,0,0-.09.26.22.22,0,0,0,.2.13c.51,0,1,0,1.54,0a.57.57,0,0,1,.47.29,2.52,2.52,0,0,1,0,.73c-.13,0-.26,0-.39,0H6.31a2.75,2.75,0,0,1-.81-.06.24.24,0,0,1-.12-.26V21.29m13.87,0h.47c0,.36,0,.72,0,1.07a1.66,1.66,0,0,0,.7,0q0-.33,0-.66h.45c0,.34,0,.68,0,1a8.43,8.43,0,0,1-.87,0,2.32,2.32,0,0,1-.59-.06c-.15,0-.15-.2-.17-.32a8.22,8.22,0,0,1,0-1.11m-9.49,0h.48c0,.36,0,.72,0,1.08l.29,0a4,4,0,0,0,0-.69H11a2.11,2.11,0,0,1,.06.66h.21a2,2,0,0,0,0-.68l.47,0a2.75,2.75,0,0,1,0,.64H12a4.85,4.85,0,0,0,0-.66,2.27,2.27,0,0,1,.45,0,.47.47,0,0,1,.05.29v.71a5.89,5.89,0,0,1-.84,0h-1.4c-.16,0-.42,0-.45-.24,0-.4,0-.82,0-1.23m2.86,0h.46c0,.35,0,.71,0,1.06a5.39,5.39,0,0,0,.9,0v-.65h.46c0,.34,0,.68,0,1a6.43,6.43,0,0,1-.88,0,2.77,2.77,0,0,1-.81-.06.32.32,0,0,1-.14-.3c0-.37,0-.74,0-1.11m3,.15c.1-.12.26-.11.4-.14-.08.13-.14.28,0,.41.54,0,1.08,0,1.61,0a.56.56,0,0,1,.51.29,1.09,1.09,0,0,1,.06.36h.48c0-.22,0-.43,0-.65h.47v1a2.81,2.81,0,0,1-.71,0,.48.48,0,0,1-.22-.12.26.26,0,0,1-.23.13H15.81a3.25,3.25,0,0,1-.44,0V22.4c.46,0,.93,0,1.39,0,.3,0,.59,0,.89,0v-.1a.41.41,0,0,0-.26-.09H15.9a.42.42,0,0,1-.37-.13.45.45,0,0,1,.05-.61m-11.42.28a3.76,3.76,0,0,1,.75,0,.34.34,0,0,1,.3.32c0,.23,0,.47,0,.7a5.27,5.27,0,0,1-.89,0A.62.62,0,0,1,4,22.68a.74.74,0,0,1-.06-.36,2.48,2.48,0,0,0,.86,0,.19.19,0,0,0-.11-.16,1.14,1.14,0,0,0-.52,0v-.51m5,0a3.38,3.38,0,0,1,.45,0c0,.33,0,.66,0,1a.44.44,0,0,1-.29.39.66.66,0,0,1-.5,0,1.83,1.83,0,0,0,.26-.21.63.63,0,0,0,.09-.38c0-.27,0-.54,0-.82m4.18,1.18a.38.38,0,0,1,.31.07c.07-.06.21-.14.28,0s0,.16-.06.22a.32.32,0,0,1-.23-.07.48.48,0,0,1-.29.07c0-.09,0-.18,0-.26m.71,0h.2a.5.5,0,0,1,0,.27h-.18a.23.23,0,0,1,0-.28m6.14,0h.26c0,.08,0,.17,0,.26s-.2,0-.24-.06,0-.13,0-.2M4,23.63H20.75v.14H4v-.14Z"
  />
</svg>